<mxfile host="app.diagrams.net" agent="Mozilla/5.0 (Windows NT 10.0; Win64; x64) AppleWebKit/537.36 (KHTML, like Gecko) Chrome/133.0.0.0 Safari/537.36" version="26.0.16">
  <diagram name="Page-1" id="z2Rc-5RE6AZ-qT2BzkB0">
    <mxGraphModel dx="1434" dy="738" grid="1" gridSize="10" guides="1" tooltips="1" connect="1" arrows="1" fold="1" page="1" pageScale="1" pageWidth="827" pageHeight="1169" math="0" shadow="0">
      <root>
        <mxCell id="0" />
        <mxCell id="1" parent="0" />
        <mxCell id="rMxz_erbiLFMN3bIZCxw-1" value="Réduire l’impact environnemental&lt;br&gt;Assister l’homme&lt;br&gt;Préserver la santé&lt;br&gt;Concevoir l’habitat de demain&lt;br&gt;Améliorer l’efficacité énergétique d’un produit&lt;br&gt;Gérer la ville du futur (Smart City)&lt;br&gt;Construire les ouvrages de demain" style="text;whiteSpace=wrap;html=1;" vertex="1" parent="1">
          <mxGeometry x="50" y="120" width="250" height="120" as="geometry" />
        </mxCell>
        <mxCell id="rMxz_erbiLFMN3bIZCxw-2" value="Exemple de thèmes" style="text;html=1;align=center;verticalAlign=middle;resizable=0;points=[];autosize=1;strokeColor=none;fillColor=none;" vertex="1" parent="1">
          <mxGeometry x="50" y="80" width="130" height="30" as="geometry" />
        </mxCell>
      </root>
    </mxGraphModel>
  </diagram>
</mxfile>
